<?xml version="1.0" encoding="UTF-8" standalone="no"?>
<!-- Created with Inkscape (http://www.inkscape.org/) -->

<svg
   xmlns:dc="http://purl.org/dc/elements/1.1/"
   xmlns:cc="http://creativecommons.org/ns#"
   xmlns:rdf="http://www.w3.org/1999/02/22-rdf-syntax-ns#"
   xmlns:svg="http://www.w3.org/2000/svg"
   xmlns="http://www.w3.org/2000/svg"
   xmlns:sodipodi="http://sodipodi.sourceforge.net/DTD/sodipodi-0.dtd"
   xmlns:inkscape="http://www.inkscape.org/namespaces/inkscape"
   width="46.200001mm"
   height="27.200001mm"
   viewBox="0 0 46.200001 27.200001"
   version="1.1"
   id="svg4526"
   inkscape:version="0.92.2 (5c3e80d, 2017-08-06)"
   sodipodi:docname="logo.svg">
  <defs
     id="defs4520" />
  <sodipodi:namedview
     id="base"
     pagecolor="#ffffff"
     bordercolor="#666666"
     borderopacity="1.0"
     inkscape:pageopacity="0.0"
     inkscape:pageshadow="2"
     inkscape:zoom="3.959798"
     inkscape:cx="89.058156"
     inkscape:cy="57.634523"
     inkscape:document-units="mm"
     inkscape:current-layer="layer1"
     showgrid="false"
     inkscape:window-width="1366"
     inkscape:window-height="705"
     inkscape:window-x="-8"
     inkscape:window-y="-8"
     inkscape:window-maximized="1"
     showguides="false"
     inkscape:guide-bbox="true">
    <sodipodi:guide
       position="16.704346,34.47777"
       orientation="0,1"
       id="guide5096"
       inkscape:locked="false" />
  </sodipodi:namedview>
  <metadata
     id="metadata4523">
    <rdf:RDF>
      <cc:Work
         rdf:about="">
        <dc:format>image/svg+xml</dc:format>
        <dc:type
           rdf:resource="http://purl.org/dc/dcmitype/StillImage" />
        <dc:title></dc:title>
      </cc:Work>
    </rdf:RDF>
  </metadata>
  <g
     inkscape:label="Layer 1"
     inkscape:groupmode="layer"
     id="layer1"
     transform="translate(0,-269.8)">
    <path
       style="fill:#ff0000;fill-opacity:1;stroke-width:0.26458332"
       d="m 8.7354332,291.28194 c 6.3270028,-4.21915 7.0402918,-4.56907 9.5092478,-6.91244 3.234059,-3.06955 7.01708,-6.03726 10.842081,-7.83458 2.645315,-1.243 7.548848,-3.05411 7.743078,-2.85988 0.0539,0.0539 -0.70099,0.43626 -1.6776,0.84964 -4.760103,2.01483 -11.074563,5.78237 -13.748035,8.20281 -1.58113,1.43148 -1.745174,1.83433 -0.581806,1.42878 0.44399,-0.15478 0.856744,-0.23192 0.917231,-0.17144 -0.104875,0.46209 -0.258932,0.61263 -0.6022,1.5052 -1.489222,0.76306 -7.274861,4.29267 -10.985572,6.30779 -3.2757998,1.77895 -9.89455883,5.10184 -9.95125183,5.10218 -0.05669,2.7e-4 3.87063703,-2.50775 8.53482703,-5.61806 z"
       id="path5090"
       inkscape:connector-curvature="0"
       sodipodi:nodetypes="sssccssccacs" />
    <path
       style="fill:#000000;stroke-width:0.99999994"
       d="M 171.46875 0.51757812 C 169.76416 0.4649709 166.94796 0.85534621 162.83398 1.3945312 C 142.56377 4.051199 123.6111 9.1383836 104.14844 17.146484 C 93.685639 21.451593 92.805321 21.644501 86.121094 21.082031 L 79.09375 20.490234 L 61.621094 35.544922 C 52.011176 43.824468 43.248439 51.483244 42.148438 52.564453 L 40.148438 54.529297 L 42.148438 53.794922 C 43.248439 53.390928 52.471797 47.518263 62.644531 40.744141 C 80.962178 28.546245 81.1956 28.427734 86.914062 28.427734 C 91.764183 28.427734 94.122873 27.707324 101.65625 23.923828 C 113.2069 18.122745 121.52497 15.018133 135.14844 11.421875 C 147.67825 8.114297 163.74101 5.1792967 164.58203 6.0449219 C 165.86556 7.3660557 146.63126 22.299799 133.41992 30.238281 C 124.31513 35.709223 106.29502 44.82691 97.533203 48.396484 C 92.047744 50.631243 91.770187 50.939008 85.533203 61.71875 C 78.481795 73.906101 77.923665 75.180909 79.044922 74.308594 C 79.578081 73.979057 84.675086 71.935007 89.988281 70.011719 C 97.89678 67.148953 99.648438 66.796801 99.648438 68.070312 C 99.648437 70.732461 93.993142 75.081666 81.607422 81.949219 C 75.048876 85.585729 69.423504 88.98078 69.107422 89.492188 C 68.79134 90.003482 69.795911 89.933658 71.339844 89.337891 C 72.883773 88.742124 80.861082 85.811482 89.066406 82.824219 C 97.271727 79.836918 104.60772 76.876078 105.36914 76.244141 C 106.13057 75.612204 108.49469 68.216604 110.62109 64.595703 C 115.21384 56.775067 119.40081 56.579314 130.14844 49.337891 C 141.40556 41.75321 160.76448 22.149145 168.57227 10.427734 C 173.59086 2.8935745 175.21884 0.63331401 171.46875 0.51757812 z M 160.63672 15.800781 C 161.02413 15.930688 159.16175 18.263866 155.22656 22.859375 C 144.77175 35.068458 126.27861 48.765908 107.16016 58.462891 C 96.363161 63.939199 86.648438 67.870582 86.648438 66.763672 C 86.648438 66.465618 87.838851 64.102018 89.294922 61.511719 C 91.591881 57.425558 92.750193 56.495562 98.044922 54.480469 C 115.34024 47.898157 136.70922 35.1482 152.54688 21.960938 C 157.61125 17.744081 160.2493 15.670874 160.63672 15.800781 z "
       transform="matrix(0.26458333,0,0,0.26458333,0,269.8)"
       id="path5088" />
  </g>
</svg>
